<svg xmlns="http://www.w3.org/2000/svg" viewBox="0 0 1128 191">
  <!-- Background -->
  <rect width="1128" height="191" fill="#f8f9fa"/>
  
  <!-- Gradient background -->
  <defs>
    <linearGradient id="headerGradient" x1="0%" y1="0%" x2="100%" y2="0%">
      <stop offset="0%" style="stop-color:#9071FF;stop-opacity:0.12"/>
      <stop offset="100%" style="stop-color:#9071FF;stop-opacity:0.04"/>
    </linearGradient>
  </defs>
  <rect width="1128" height="191" fill="url(#headerGradient)"/>
  
  <!-- Flowing lines -->
  <path d="M0,95 Q282,75 564,95 T1128,95" 
        fill="none" 
        stroke="#9071FF" 
        stroke-width="1.5" 
        stroke-opacity="0.3"/>
  
  <path d="M0,105 Q282,85 564,105 T1128,105" 
        fill="none" 
        stroke="#9071FF" 
        stroke-width="1.5" 
        stroke-opacity="0.2"/>
  
  <path d="M0,85 Q282,65 564,85 T1128,85" 
        fill="none" 
        stroke="#9071FF" 
        stroke-width="1.5" 
        stroke-opacity="0.15"/>
  
  <!-- Cloud 1 - Top right -->
  <g transform="translate(925, 20) scale(0.04)">
    <path fill="#9071FF" opacity="0.8" d="M888.859,537.091c-2.329-56.886-33.467-110.368-86.458-134.608c-43.473-19.886-96.968-15.445-138.378,8.285
    c-44.394-117.469-174.965-182.973-295.667-142.081C246.839,313.606,185.24,450.258,229.123,570.977
    c-57.527,6.513-114.564,30.994-150.132,78.234c-29.637,39.362-35.644,89.456-22.15,136.196
    c14.087,48.791,46.955,90.952,88.525,119.583c24.197,16.666,51.643,28.687,80.131,35.765c17.545,4.359,36.391,2.275,54.367,2.197
    c23.098-0.1,46.196-0.199,69.294-0.299c181.897-0.785,363.794-1.569,545.691-2.354c21.654-0.093,43.309-0.187,64.964-0.28
    c19.407-0.084,37.063,1.604,55.273-5.52c26.036-10.187,49.924-25.424,70.024-44.877c40.825-39.51,64.804-95.251,64.89-152.098
    C1150.205,601.574,1016.891,507.189,888.859,537.091z"/>
  </g>
  
  <!-- Cloud 2 - Middle right -->
  <g transform="translate(775, 25) scale(0.035)">
    <path fill="#9071FF" opacity="0.8" d="M888.859,537.091c-2.329-56.886-33.467-110.368-86.458-134.608c-43.473-19.886-96.968-15.445-138.378,8.285
    c-44.394-117.469-174.965-182.973-295.667-142.081C246.839,313.606,185.24,450.258,229.123,570.977
    c-57.527,6.513-114.564,30.994-150.132,78.234c-29.637,39.362-35.644,89.456-22.15,136.196
    c14.087,48.791,46.955,90.952,88.525,119.583c24.197,16.666,51.643,28.687,80.131,35.765c17.545,4.359,36.391,2.275,54.367,2.197
    c23.098-0.1,46.196-0.199,69.294-0.299c181.897-0.785,363.794-1.569,545.691-2.354c21.654-0.093,43.309-0.187,64.964-0.28
    c19.407-0.084,37.063,1.604,55.273-5.52c26.036-10.187,49.924-25.424,70.024-44.877c40.825-39.51,64.804-95.251,64.89-152.098
    C1150.205,601.574,1016.891,507.189,888.859,537.091z"/>
  </g>
  
  <!-- Cloud 3 - Lower right -->
  <g transform="translate(850, 30) scale(0.05)">
    <path fill="#9071FF" opacity="0.8" d="M888.859,537.091c-2.329-56.886-33.467-110.368-86.458-134.608c-43.473-19.886-96.968-15.445-138.378,8.285
    c-44.394-117.469-174.965-182.973-295.667-142.081C246.839,313.606,185.24,450.258,229.123,570.977
    c-57.527,6.513-114.564,30.994-150.132,78.234c-29.637,39.362-35.644,89.456-22.15,136.196
    c14.087,48.791,46.955,90.952,88.525,119.583c24.197,16.666,51.643,28.687,80.131,35.765c17.545,4.359,36.391,2.275,54.367,2.197
    c23.098-0.1,46.196-0.199,69.294-0.299c181.897-0.785,363.794-1.569,545.691-2.354c21.654-0.093,43.309-0.187,64.964-0.28
    c19.407-0.084,37.063,1.604,55.273-5.52c26.036-10.187,49.924-25.424,70.024-44.877c40.825-39.51,64.804-95.251,64.89-152.098
    C1150.205,601.574,1016.891,507.189,888.859,537.091z"/>
  </g>
</svg>